<svg xmlns="http://www.w3.org/2000/svg" data-name="Layer 1" viewBox="0 0 128 160" x="0px" y="0px"><title>new delhi</title><path d="M40.9,100.46H9.45a1,1,0,0,1-1-1V85.31a1,1,0,0,1,1-1H40.9a1,1,0,0,1,1,1V99.46A1,1,0,0,1,40.9,100.46Zm-30.45-2H39.9V86.31H10.45Z"/><path d="M14.78,92.87a1,1,0,0,1-1-1V85.31a1,1,0,0,1,2,0v6.55A1,1,0,0,1,14.78,92.87Z"/><path d="M57.83,109.21H9.45a1,1,0,0,1-1-1V99.46a1,1,0,0,1,1-1H57.83a1,1,0,0,1,1,1v8.76A1,1,0,0,1,57.83,109.21Zm-47.38-2H56.83v-6.76H10.45Z"/><path d="M118.55,109.21H70.17a1,1,0,0,1-1-1V99.46a1,1,0,0,1,1-1h48.38a1,1,0,0,1,1,1v8.76A1,1,0,0,1,118.55,109.21Zm-47.38-2h46.38v-6.76H71.17Z"/><path d="M41.71,100.46H25.58a1,1,0,0,1-1-1,9.06,9.06,0,1,1,18.13,0A1,1,0,0,1,41.71,100.46Zm-15.06-2h14a7.06,7.06,0,0,0-14,0Z"/><path d="M57.83,100.46H41.71a1,1,0,0,1-1-1,9.06,9.06,0,1,1,18.13,0A1,1,0,0,1,57.83,100.46Zm-15.06-2h14a7.06,7.06,0,0,0-14,0Z"/><path d="M86.29,100.46H70.17a1,1,0,0,1-1-1,9.06,9.06,0,1,1,18.13,0A1,1,0,0,1,86.29,100.46Zm-15.06-2h14a7.06,7.06,0,0,0-14,0Z"/><path d="M102.42,100.46H86.29a1,1,0,0,1-1-1,9.06,9.06,0,1,1,18.13,0A1,1,0,0,1,102.42,100.46Zm-15.06-2h14a7.06,7.06,0,0,0-14,0Z"/><path d="M118.55,100.46H102.42a1,1,0,0,1-1-1,9.06,9.06,0,1,1,18.13,0A1,1,0,0,1,118.55,100.46Zm-15.06-2h14a7.06,7.06,0,0,0-14,0Z"/><path d="M117.06,86.31h-6.24a1,1,0,0,1-1-1V80.09a1,1,0,0,1,1-1h6.24a1,1,0,0,1,1,1v5.22A1,1,0,0,1,117.06,86.31Zm-5.24-2h4.24V81.09h-4.24Z"/><path d="M117.06,80.41h-6.24a1,1,0,0,1-.95-.68l-1.5-4.45a1,1,0,0,1,.95-1.32h9.23a1,1,0,0,1,.95,1.32L118,79.73A1,1,0,0,1,117.06,80.41Zm-5.52-2h4.81l.82-2.45h-6.45Z"/><path d="M117.06,76h-6.24a1,1,0,0,1-1-1V65.49a1,1,0,0,1,1-1h6.24a1,1,0,0,1,1,1V75A1,1,0,0,1,117.06,76Zm-5.24-2h4.24V66.49h-4.24Z"/><path d="M117.06,66.49h-6.24a1,1,0,0,1-1-1.2L113,50.08a1,1,0,0,1,2,0L118,65.29a1,1,0,0,1-1,1.2Zm-5-2h3.79l-1.9-9.24Z"/><path d="M118.55,100.46H87.1a1,1,0,0,1-1-1V85.31a1,1,0,0,1,1-1h31.45a1,1,0,0,1,1,1V99.46A1,1,0,0,1,118.55,100.46Zm-30.45-2h29.45V86.31H88.1Z"/><path d="M48.46,91.91a1,1,0,0,1-1-1v-5.6a1,1,0,0,1,1-1H79.54a1,1,0,0,1,1,1v5.29a1,1,0,0,1-2,0V86.31H49.46v4.6A1,1,0,0,1,48.46,91.91Z"/><path d="M25.58,100.46H9.45a1,1,0,0,1-1-1,9.06,9.06,0,1,1,18.13,0A1,1,0,0,1,25.58,100.46Zm-15.05-2h14a7.06,7.06,0,0,0-14,0Z"/><path d="M17.18,86.31H10.94a1,1,0,0,1-1-1V80.09a1,1,0,0,1,1-1h6.24a1,1,0,0,1,1,1v5.22A1,1,0,0,1,17.18,86.31Zm-5.24-2h4.24V81.09H11.94Z"/><path d="M17.18,80.86H10.94a1,1,0,0,1-.95-.68L8.5,75.73a1,1,0,0,1,.95-1.32h9.23a1,1,0,0,1,.95,1.32l-1.5,4.45A1,1,0,0,1,17.18,80.86Zm-5.52-2h4.8l.82-2.45H10.84Z"/><path d="M17.18,76.4H10.94a1,1,0,0,1-1-1V65.93a1,1,0,0,1,1-1h6.24a1,1,0,0,1,1,1V75.4A1,1,0,0,1,17.18,76.4Zm-5.24-2h4.24V66.93H11.94Z"/><path d="M17.18,66.93H10.94a1,1,0,0,1-1-1.2l3.12-15.22a1,1,0,0,1,2,0l3.12,15.22a1,1,0,0,1-1,1.2Zm-5-2H16l-1.9-9.24Z"/><path d="M25.58,100.46H9.45a1,1,0,0,1-1-1,9.06,9.06,0,1,1,18.13,0A1,1,0,0,1,25.58,100.46Zm-15.05-2h14a7.06,7.06,0,0,0-14,0Z"/><path d="M41.71,100.46H25.58a1,1,0,0,1-1-1,9.06,9.06,0,1,1,18.13,0A1,1,0,0,1,41.71,100.46Zm-15.06-2h14a7.06,7.06,0,0,0-14,0Z"/><path d="M57.83,100.46H41.71a1,1,0,0,1-1-1,9.06,9.06,0,1,1,18.13,0A1,1,0,0,1,57.83,100.46Zm-15.06-2h14a7.06,7.06,0,0,0-14,0Z"/><path d="M86.29,100.46H70.17a1,1,0,0,1-1-1,9.06,9.06,0,1,1,18.13,0A1,1,0,0,1,86.29,100.46Zm-15.06-2h14a7.06,7.06,0,0,0-14,0Z"/><path d="M102.42,100.46H86.29a1,1,0,0,1-1-1,9.06,9.06,0,1,1,18.13,0A1,1,0,0,1,102.42,100.46Zm-15.06-2h14a7.06,7.06,0,0,0-14,0Z"/><path d="M118.55,100.46H102.42a1,1,0,0,1-1-1,9.06,9.06,0,1,1,18.13,0A1,1,0,0,1,118.55,100.46Zm-15.06-2h14a7.06,7.06,0,0,0-14,0Z"/><path d="M104.65,73H23.35a1,1,0,0,1,0-2h81.3a1,1,0,0,1,0,2Z"/><path d="M79.54,86.31H48.46a1,1,0,0,1,0-2H79.54a1,1,0,0,1,0,2Z"/><path d="M40.9,92.39a1,1,0,0,1-1-1V86.31H10.45v5.08a1,1,0,1,1-2,0V85.31a1,1,0,0,1,1-1H40.9a1,1,0,0,1,1,1v6.08A1,1,0,0,1,40.9,92.39Z"/><path d="M17.18,86.31H10.94a1,1,0,0,1-1-1V80.09a1,1,0,0,1,1-1h6.24a1,1,0,0,1,1,1v5.22A1,1,0,0,1,17.18,86.31Zm-5.24-2h4.24V81.09H11.94Z"/><path d="M17.18,80.86H10.94a1,1,0,0,1-.95-.68L8.5,75.73a1,1,0,0,1,.95-1.32h9.23a1,1,0,0,1,.95,1.32l-1.5,4.45A1,1,0,0,1,17.18,80.86Zm-5.52-2h4.8l.82-2.45H10.84Z"/><path d="M17.18,76.4H10.94a1,1,0,0,1-1-1V65.93a1,1,0,0,1,1-1h6.24a1,1,0,0,1,1,1V75.4A1,1,0,0,1,17.18,76.4Zm-5.24-2h4.24V66.93H11.94Z"/><path d="M17.18,66.93H10.94a1,1,0,0,1-1-1.2l3.12-15.22a1,1,0,0,1,2,0l3.12,15.22a1,1,0,0,1-1,1.2Zm-5-2H16l-1.9-9.24Z"/><path d="M14.06,51.72a1,1,0,0,1-1-1v-6a1,1,0,0,1,2,0v6A1,1,0,0,1,14.06,51.72Z"/><path d="M118.55,92.39a1,1,0,0,1-1-1V86.31H88.1v5.08a1,1,0,0,1-2,0V85.31a1,1,0,0,1,1-1h31.45a1,1,0,0,1,1,1v6.08A1,1,0,0,1,118.55,92.39Z"/><path d="M117.06,86.31h-6.24a1,1,0,0,1-1-1V80.09a1,1,0,0,1,1-1h6.24a1,1,0,0,1,1,1v5.22A1,1,0,0,1,117.06,86.31Zm-5.24-2h4.24V81.09h-4.24Z"/><path d="M117.06,80.41h-6.24a1,1,0,0,1-.95-.68l-1.5-4.45a1,1,0,0,1,.95-1.32h9.23a1,1,0,0,1,.95,1.32L118,79.73A1,1,0,0,1,117.06,80.41Zm-5.52-2h4.81l.82-2.45h-6.45Z"/><path d="M117.06,76h-6.24a1,1,0,0,1-1-1V65.49a1,1,0,0,1,1-1h6.24a1,1,0,0,1,1,1V75A1,1,0,0,1,117.06,76Zm-5.24-2h4.24V66.49h-4.24Z"/><path d="M117.06,66.49h-6.24a1,1,0,0,1-1-1.2L113,50.08a1,1,0,0,1,2,0L118,65.29a1,1,0,0,1-1,1.2Zm-5-2h3.79l-1.9-9.24Z"/><path d="M113.94,51.28a1,1,0,0,1-1-1v-6a1,1,0,0,1,2,0v6A1,1,0,0,1,113.94,51.28Z"/><path d="M46.61,82.85h-5a1,1,0,0,1-1-1V77.26a3.51,3.51,0,1,1,7,0v4.59A1,1,0,0,1,46.61,82.85Zm-4-2h3V77.26a1.51,1.51,0,1,0-3,0Z"/><path d="M37.3,82.85h-5a1,1,0,0,1-1-1V77.26a3.51,3.51,0,1,1,7,0v4.59A1,1,0,0,1,37.3,82.85Zm-4-2h3V77.26a1.51,1.51,0,1,0-3,0Z"/><path d="M28,82.85H23a1,1,0,0,1-1-1V77.26a3.51,3.51,0,1,1,7,0v4.59A1,1,0,0,1,28,82.85Zm-4-2h3V77.26a1.51,1.51,0,1,0-3,0Z"/><path d="M46.61,82.85h-5a1,1,0,0,1-1-1V77.26a3.51,3.51,0,1,1,7,0v4.59A1,1,0,0,1,46.61,82.85Zm-4-2h3V77.26a1.51,1.51,0,1,0-3,0Z"/><path d="M37.3,82.85h-5a1,1,0,0,1-1-1V77.26a3.51,3.51,0,1,1,7,0v4.59A1,1,0,0,1,37.3,82.85Zm-4-2h3V77.26a1.51,1.51,0,1,0-3,0Z"/><path d="M28,82.85H23a1,1,0,0,1-1-1V77.26a3.51,3.51,0,1,1,7,0v4.59A1,1,0,0,1,28,82.85Zm-4-2h3V77.26a1.51,1.51,0,1,0-3,0Z"/><path d="M74.55,82.85h-5a1,1,0,0,1-1-1V77.26a3.51,3.51,0,1,1,7,0v4.59A1,1,0,0,1,74.55,82.85Zm-4-2h3V77.26a1.51,1.51,0,1,0-3,0Z"/><path d="M65.24,82.85h-5a1,1,0,0,1-1-1V77.26a3.51,3.51,0,1,1,7,0v4.59A1,1,0,0,1,65.24,82.85Zm-4-2h3V77.26a1.51,1.51,0,1,0-3,0Z"/><path d="M55.93,82.85h-5a1,1,0,0,1-1-1V77.26a3.51,3.51,0,1,1,7,0v4.59A1,1,0,0,1,55.93,82.85Zm-4-2h3V77.26a1.51,1.51,0,1,0-3,0Z"/><path d="M74.55,82.85h-5a1,1,0,0,1-1-1V77.26a3.51,3.51,0,1,1,7,0v4.59A1,1,0,0,1,74.55,82.85Zm-4-2h3V77.26a1.51,1.51,0,1,0-3,0Z"/><path d="M65.24,82.85h-5a1,1,0,0,1-1-1V77.26a3.51,3.51,0,1,1,7,0v4.59A1,1,0,0,1,65.24,82.85Zm-4-2h3V77.26a1.51,1.51,0,1,0-3,0Z"/><path d="M55.93,82.85h-5a1,1,0,0,1-1-1V77.26a3.51,3.51,0,1,1,7,0v4.59A1,1,0,0,1,55.93,82.85Zm-4-2h3V77.26a1.51,1.51,0,1,0-3,0Z"/><path d="M102.49,82.85h-5a1,1,0,0,1-1-1V77.26a3.51,3.51,0,1,1,7,0v4.59A1,1,0,0,1,102.49,82.85Zm-4-2h3V77.26a1.51,1.51,0,1,0-3,0Z"/><path d="M93.18,82.85h-5a1,1,0,0,1-1-1V77.26a3.51,3.51,0,1,1,7,0v4.59A1,1,0,0,1,93.18,82.85Zm-4-2h3V77.26a1.51,1.51,0,1,0-3,0Z"/><path d="M83.87,82.85h-5a1,1,0,0,1-1-1V77.26a3.51,3.51,0,1,1,7,0v4.59A1,1,0,0,1,83.87,82.85Zm-4-2h3V77.26a1.51,1.51,0,1,0-3,0Z"/><path d="M102.49,82.85h-5a1,1,0,0,1-1-1V77.26a3.51,3.51,0,1,1,7,0v4.59A1,1,0,0,1,102.49,82.85Zm-4-2h3V77.26a1.51,1.51,0,1,0-3,0Z"/><path d="M93.18,82.85h-5a1,1,0,0,1-1-1V77.26a3.51,3.51,0,1,1,7,0v4.59A1,1,0,0,1,93.18,82.85Zm-4-2h3V77.26a1.51,1.51,0,1,0-3,0Z"/><path d="M83.87,82.85h-5a1,1,0,0,1-1-1V77.26a3.51,3.51,0,1,1,7,0v4.59A1,1,0,0,1,83.87,82.85Zm-4-2h3V77.26a1.51,1.51,0,1,0-3,0Z"/><path d="M70.17,109.21H57.83a1,1,0,0,1-1-1V95.46a7.17,7.17,0,1,1,14.34,0v12.76A1,1,0,0,1,70.17,109.21Zm-11.34-2H69.17V95.46a5.17,5.17,0,1,0-10.34,0Z"/><path d="M70.17,109.21a1,1,0,0,1-1-1V95.46a5.17,5.17,0,1,0-10.34,0v12.76a1,1,0,0,1-2,0V95.46a7.17,7.17,0,1,1,14.34,0v12.76A1,1,0,0,1,70.17,109.21Z"/><path d="M66.31,109.21a1,1,0,0,1-1-1v-4.79a1.31,1.31,0,1,0-2.63,0v4.79a1,1,0,0,1-2,0v-4.79a3.31,3.31,0,1,1,6.63,0v4.79A1,1,0,0,1,66.31,109.21Z"/><path d="M66.31,105.64a1,1,0,0,1-1-1v-1.22a1.31,1.31,0,1,0-2.63,0v1.22a1,1,0,0,1-2,0v-1.22a3.31,3.31,0,1,1,6.63,0v1.22A1,1,0,0,1,66.31,105.64Z"/><path d="M57.83,109.21a1,1,0,0,1-1-1v-7.76H10.45v7.76a1,1,0,1,1-2,0V99.46a1,1,0,0,1,1-1H57.83a1,1,0,0,1,1,1v8.76A1,1,0,0,1,57.83,109.21Z"/><path d="M118.55,109.21a1,1,0,0,1-1-1v-7.76H71.17v7.76a1,1,0,0,1-2,0V99.46a1,1,0,0,1,1-1h48.38a1,1,0,0,1,1,1v8.76A1,1,0,0,1,118.55,109.21Z"/><path d="M15.92,103.77a1,1,0,0,1-1-1V99.46a1,1,0,0,1,2,0v3.32A1,1,0,0,1,15.92,103.77Z"/><path d="M23,103.77a1,1,0,0,1-1-1V99.46a1,1,0,0,1,2,0v3.32A1,1,0,0,1,23,103.77Z"/><path d="M30.1,103.77a1,1,0,0,1-1-1V99.46a1,1,0,0,1,2,0v3.32A1,1,0,0,1,30.1,103.77Z"/><path d="M37.19,103.77a1,1,0,0,1-1-1V99.46a1,1,0,0,1,2,0v3.32A1,1,0,0,1,37.19,103.77Z"/><path d="M44.28,103.77a1,1,0,0,1-1-1V99.46a1,1,0,0,1,2,0v3.32A1,1,0,0,1,44.28,103.77Z"/><path d="M51.37,103.77a1,1,0,0,1-1-1V99.46a1,1,0,0,1,2,0v3.32A1,1,0,0,1,51.37,103.77Z"/><path d="M76.63,103.77a1,1,0,0,1-1-1V99.46a1,1,0,0,1,2,0v3.32A1,1,0,0,1,76.63,103.77Z"/><path d="M83.72,103.77a1,1,0,0,1-1-1V99.46a1,1,0,0,1,2,0v3.32A1,1,0,0,1,83.72,103.77Z"/><path d="M90.81,103.77a1,1,0,0,1-1-1V99.46a1,1,0,0,1,2,0v3.32A1,1,0,0,1,90.81,103.77Z"/><path d="M97.9,103.77a1,1,0,0,1-1-1V99.46a1,1,0,0,1,2,0v3.32A1,1,0,0,1,97.9,103.77Z"/><path d="M105,103.77a1,1,0,0,1-1-1V99.46a1,1,0,0,1,2,0v3.32A1,1,0,0,1,105,103.77Z"/><path d="M112.08,103.77a1,1,0,0,1-1-1V99.46a1,1,0,0,1,2,0v3.32A1,1,0,0,1,112.08,103.77Z"/><path d="M65.47,96.42H62.53a1,1,0,0,1,0-2h2.94a1,1,0,0,1,0,2Z"/><path d="M77.91,72.83H46.17a1,1,0,0,1-1-1,5.44,5.44,0,0,0-5.43-5.43,1,1,0,0,1-1-1V62.28a3.58,3.58,0,0,1,3.57-3.57H81.77a3.58,3.58,0,0,1,3.57,3.57V65.4a1,1,0,0,1-1,1,5.44,5.44,0,0,0-5.43,5.43A1,1,0,0,1,77.91,72.83Zm-30.8-2H77a7.45,7.45,0,0,1,6.37-6.37V62.28a1.57,1.57,0,0,0-1.57-1.57H42.31a1.58,1.58,0,0,0-1.57,1.57v2.18A7.45,7.45,0,0,1,47.1,70.83Z"/><path d="M56.72,39.07a1,1,0,0,1-1-1v-.54a6.31,6.31,0,1,1,12.63,0v.54a1,1,0,0,1-1.41.91,11.91,11.91,0,0,0-9.8,0A1,1,0,0,1,56.72,39.07ZM62,33.21a4.32,4.32,0,0,0-4.21,3.35,13.94,13.94,0,0,1,8.41,0A4.32,4.32,0,0,0,62,33.21Z"/><path d="M73.86,72.82h-5a1,1,0,0,1-1-1V67.23a3.51,3.51,0,0,1,7,0v4.59A1,1,0,0,1,73.86,72.82Zm-4-2h3V67.23a1.51,1.51,0,0,0-3,0Z"/><path d="M64.55,72.82h-5a1,1,0,0,1-1-1V67.23a3.51,3.51,0,0,1,7,0v4.59A1,1,0,0,1,64.55,72.82Zm-4-2h3V67.23a1.51,1.51,0,0,0-3,0Z"/><path d="M55.25,72.82h-5a1,1,0,0,1-1-1V67.23a3.51,3.51,0,0,1,7,0v4.59A1,1,0,0,1,55.25,72.82Zm-4-2h3V67.23a1.51,1.51,0,0,0-3,0Z"/><path d="M46.17,72.83H33.3a1,1,0,0,1-1-1,7.43,7.43,0,1,1,14.87,0A1,1,0,0,1,46.17,72.83Zm-11.77-2H45.08a5.43,5.43,0,0,0-10.68,0Z"/><path d="M90.77,72.83H77.91a1,1,0,0,1-1-1,7.43,7.43,0,1,1,14.87,0A1,1,0,0,1,90.77,72.83ZM79,70.83H89.68a5.43,5.43,0,0,0-10.68,0Z"/><path d="M46.17,72.83H33.3a1,1,0,0,1-1-1,7.43,7.43,0,1,1,14.87,0A1,1,0,0,1,46.17,72.83Zm-11.77-2H45.08a5.43,5.43,0,0,0-10.68,0Z"/><path d="M90.77,72.83H77.91a1,1,0,0,1-1-1,7.43,7.43,0,1,1,14.87,0A1,1,0,0,1,90.77,72.83ZM79,70.83H89.68a5.43,5.43,0,0,0-10.68,0Z"/><path d="M62,33.21a1,1,0,0,1-1-1V19.79a1,1,0,0,1,2,0V32.21A1,1,0,0,1,62,33.21Z"/><path d="M73.86,72.82h-5a1,1,0,0,1-1-1V67.23a3.51,3.51,0,0,1,7,0v4.59A1,1,0,0,1,73.86,72.82Zm-4-2h3V67.23a1.51,1.51,0,0,0-3,0Z"/><path d="M64.55,72.82h-5a1,1,0,0,1-1-1V67.23a3.51,3.51,0,0,1,7,0v4.59A1,1,0,0,1,64.55,72.82Zm-4-2h3V67.23a1.51,1.51,0,0,0-3,0Z"/><path d="M55.25,72.82h-5a1,1,0,0,1-1-1V67.23a3.51,3.51,0,0,1,7,0v4.59A1,1,0,0,1,55.25,72.82Zm-4-2h3V67.23a1.51,1.51,0,0,0-3,0Z"/><path d="M56.72,39.07a1,1,0,0,1-1-1v-.54a6.31,6.31,0,1,1,12.63,0v.54a1,1,0,0,1-1.41.91,11.91,11.91,0,0,0-9.8,0A1,1,0,0,1,56.72,39.07ZM62,33.21a4.32,4.32,0,0,0-4.21,3.35,13.94,13.94,0,0,1,8.41,0A4.32,4.32,0,0,0,62,33.21Z"/><path d="M38.49,66.4a1,1,0,0,1-.9-.57c-4-8.22-1.48-14.85,7.17-19.17,12.07-6,11.65-11,11.64-11.08a1,1,0,0,1,.85-1.12,1,1,0,0,1,1.12.81c.11.64.66,6.48-12.73,13.17-7.6,3.8-9.71,9.36-6.26,16.52a1,1,0,0,1-.9,1.43Z"/><path d="M86,66.4a1,1,0,0,1-.9-1.43c3.43-7.11,1.26-12.67-6.44-16.52C65.25,41.76,65.81,35.92,65.91,35.28a1,1,0,0,1,2,.31c0,.13-.33,5.09,11.64,11.07,11,5.52,10.09,13.47,7.35,19.17A1,1,0,0,1,86,66.4Z"/><text x="0" y="143" fill="#000000" font-size="5px" font-weight="bold" font-family="'Helvetica Neue', Helvetica, Arial-Unicode, Arial, Sans-serif">Created by Philipp Petzka</text><text x="0" y="148" fill="#000000" font-size="5px" font-weight="bold" font-family="'Helvetica Neue', Helvetica, Arial-Unicode, Arial, Sans-serif">from the Noun Project</text></svg>